<svg xmlns="http://www.w3.org/2000/svg" viewBox="0 0 800 600">
  <defs>
    <linearGradient id="bg" x1="0%" y1="0%" x2="0%" y2="100%">
      <stop offset="0%" style="stop-color:#1a4a6b"/>
      <stop offset="100%" style="stop-color:#0d5a7a"/>
    </linearGradient>
  </defs>
  <rect width="800" height="600" fill="url(#bg)"/>
  <g transform="translate(100, 250)">
    <path d="M0 100 Q150 130 300 130 Q450 130 600 100 L580 60 Q300 70 20 60 Z" fill="#fff"/>
    <path d="M100 60 L100 20 L500 20 L500 60 Z" fill="#f5f5f5"/>
    <rect x="130" y="30" width="50" height="20" rx="3" fill="#2EBDB6" opacity="0.8"/>
    <rect x="200" y="30" width="50" height="20" rx="3" fill="#2EBDB6" opacity="0.8"/>
    <rect x="270" y="30" width="50" height="20" rx="3" fill="#2EBDB6" opacity="0.8"/>
    <rect x="340" y="30" width="50" height="20" rx="3" fill="#2EBDB6" opacity="0.8"/>
    <rect x="410" y="30" width="50" height="20" rx="3" fill="#2EBDB6" opacity="0.8"/>
    <path d="M150 20 L150 -10 L450 -10 L450 20 Z" fill="#e8e8e8"/>
  </g>
  <text x="400" y="500" text-anchor="middle" font-family="Montserrat, sans-serif" font-size="24" fill="#fff" opacity="0.8">Sunseeker 68</text>
  <ellipse cx="400" cy="420" rx="300" ry="15" fill="#fff" opacity="0.1"/>
</svg>
