<svg xmlns="http://www.w3.org/2000/svg" viewBox="0 0 800 400">
  <defs>
    <linearGradient id="sky" x1="0%" y1="0%" x2="0%" y2="100%">
      <stop offset="0%" style="stop-color:#87CEEB"/>
      <stop offset="100%" style="stop-color:#B0E0E6"/>
    </linearGradient>
    <linearGradient id="sea" x1="0%" y1="0%" x2="0%" y2="100%">
      <stop offset="0%" style="stop-color:#1E90FF"/>
      <stop offset="100%" style="stop-color:#4169E1"/>
    </linearGradient>
  </defs>
  <rect fill="url(#sky)" width="800" height="250"/>
  <rect fill="url(#sea)" y="250" width="800" height="150"/>
  <!-- Yacht -->
  <path d="M300 220 L500 220 L520 250 L280 250 Z" fill="#FFFFFF"/>
  <path d="M320 220 L320 140 L400 100 L400 220" fill="#F5F5F5" stroke="#DDD" stroke-width="2"/>
  <rect x="350" y="180" width="40" height="30" fill="#87CEEB" stroke="#666"/>
  <rect x="410" y="180" width="40" height="30" fill="#87CEEB" stroke="#666"/>
  <!-- Balloons -->
  <circle cx="360" cy="100" r="20" fill="#FF6B6B"/>
  <circle cx="390" cy="90" r="18" fill="#4ECDC4"/>
  <circle cx="420" cy="95" r="22" fill="#FFE66D"/>
  <line x1="360" y1="120" x2="360" y2="150" stroke="#999" stroke-width="1"/>
  <line x1="390" y1="108" x2="390" y2="150" stroke="#999" stroke-width="1"/>
  <line x1="420" y1="117" x2="420" y2="150" stroke="#999" stroke-width="1"/>
  <!-- People silhouettes -->
  <circle cx="340" cy="195" r="10" fill="#2D3E50"/>
  <rect x="335" y="205" width="10" height="15" fill="#2D3E50"/>
  <circle cx="380" cy="195" r="10" fill="#2D3E50"/>
  <rect x="375" y="205" width="10" height="15" fill="#2D3E50"/>
  <circle cx="420" cy="195" r="10" fill="#2D3E50"/>
  <rect x="415" y="205" width="10" height="15" fill="#2D3E50"/>
  <circle cx="460" cy="195" r="10" fill="#2D3E50"/>
  <rect x="455" y="205" width="10" height="15" fill="#2D3E50"/>
  <!-- ON THE SEA watermark -->
  <text x="650" y="380" font-family="Arial, sans-serif" font-size="14" fill="rgba(255,255,255,0.7)">ON THE SEA</text>
</svg>
